<?xml version="1.0" encoding="UTF-8" standalone="no"?>
<!DOCTYPE svg PUBLIC "-//W3C//DTD SVG 1.1//EN" "http://www.w3.org/Graphics/SVG/1.1/DTD/svg11.dtd">
<svg width="100%" height="100%" viewBox="0 0 2384 1900" version="1.1" xmlns="http://www.w3.org/2000/svg" xmlns:xlink="http://www.w3.org/1999/xlink" xml:space="preserve" xmlns:serif="http://www.serif.com/" style="fill-rule:evenodd;clip-rule:evenodd;stroke-linejoin:round;stroke-miterlimit:2;">
    <g transform="matrix(0.24,0,0,0.24,0,0)">
        <g transform="matrix(1,0,0,1.0218,-100,-148.476)">
            <path d="M8060,1290C8060,1121.67 7920.35,985 7748.35,985L491.65,985C319.646,985 180,1121.67 180,1290L180,6780C180,6948.33 319.646,7085 491.65,7085L7748.35,7085C7920.35,7085 8060,6948.33 8060,6780L8060,1290Z" style="fill:rgb(131,12,166);"/>
        </g>
        <g transform="matrix(-0.00108309,1.34164,-1.66725,-0.0010124,11946.7,-44.6824)">
            <path d="M5707,5078L187,5078L926.959,1748L4967.04,1748L5707,5078Z" style="fill:rgb(65,0,92);"/>
        </g>
        <rect x="1554" y="1118" width="1866" height="767" style="fill:rgb(229,216,233);"/>
        <g transform="matrix(1,0,0,1,-7,3087)">
            <rect x="1554" y="1118" width="1866" height="767" style="fill:rgb(229,216,233);"/>
        </g>
        <g transform="matrix(0.496009,0,0,1,-419.821,3094)">
            <rect x="1554" y="1118" width="1866" height="767" style="fill:rgb(229,216,233);"/>
        </g>
        <g transform="matrix(1,0,0,1,0,1013)">
            <rect x="1554" y="1118" width="1866" height="767" style="fill:rgb(229,216,233);"/>
        </g>
        <g transform="matrix(0.496009,0,0,1,-416.349,1020)">
            <rect x="1554" y="1118" width="1866" height="767" style="fill:rgb(229,216,233);"/>
        </g>
        <g transform="matrix(1,0,0,1,-7,4053)">
            <rect x="1554" y="1118" width="1866" height="767" style="fill:rgb(229,216,233);"/>
        </g>
        <g transform="matrix(0.496009,0,0,1,-419.821,4060)">
            <rect x="1554" y="1118" width="1866" height="767" style="fill:rgb(229,216,233);"/>
        </g>
        <g transform="matrix(1,0,0,1,0,2059)">
            <rect x="1554" y="1118" width="1866" height="767" style="fill:rgb(229,216,233);"/>
        </g>
        <g transform="matrix(0.496009,0,0,1,-416.349,2066)">
            <rect x="1554" y="1118" width="1866" height="767" style="fill:rgb(229,216,233);"/>
        </g>
        <g transform="matrix(1,0,0,1,-13,5033)">
            <rect x="1554" y="1118" width="1866" height="767" style="fill:rgb(229,216,233);"/>
        </g>
        <g transform="matrix(0.496009,0,0,1,-422.797,5040)">
            <rect x="1554" y="1118" width="1866" height="767" style="fill:rgb(229,216,233);"/>
        </g>
        <g transform="matrix(-0.00113971,1.41178,-1.76925,-0.00107435,12692.1,-197.691)">
            <path d="M5707,5078L187,5078L926.959,1748L4967.04,1748L5707,5078Z" style="fill:rgb(94,9,119);"/>
        </g>
        <g transform="matrix(1,0,0,1,-60,20)">
            <path d="M7174,2157.44C7174,2066.13 7099.87,1992 7008.56,1992L6305.44,1992C6214.13,1992 6140,2066.13 6140,2157.44L6140,6059.56C6140,6150.87 6214.13,6225 6305.44,6225L7008.56,6225C7099.87,6225 7174,6150.87 7174,6059.56L7174,2157.44Z" style="fill:rgb(229,216,233);"/>
        </g>
        <g transform="matrix(0.992881,0.119114,-0.119114,0.992881,3.60231,-603.781)">
            <path d="M8921.29,1794.4C8921.29,1660.14 8812.3,1551.15 8678.04,1551.15L4990.2,1313.65C4855.95,1313.65 4746.95,1422.65 4746.95,1556.9L4782.93,2066.28C4782.93,2200.53 4891.93,2309.53 5026.18,2309.53L8746.2,2361.87C8880.45,2361.87 8989.45,2252.88 8989.45,2118.62L8921.29,1794.4Z" style="fill:rgb(229,216,233);"/>
        </g>
        <g transform="matrix(1,0,0,1,0,-2624)">
            <rect x="457" y="6946" width="737" height="508" style="fill:rgb(103,18,128);"/>
        </g>
        <g transform="matrix(2.20353,0,0,1,702.988,-2637)">
            <rect x="457" y="6946" width="737" height="508" style="fill:rgb(103,18,128);"/>
        </g>
    </g>
</svg>
