<?xml version="1.0" standalone="no"?>
<!DOCTYPE svg PUBLIC "-//W3C//DTD SVG 20010904//EN"
 "http://www.w3.org/TR/2001/REC-SVG-20010904/DTD/svg10.dtd">
<svg version="1.0" xmlns="http://www.w3.org/2000/svg"
 width="2384.000000pt" height="2384.000000pt" viewBox="0 0 2384.000000 2384.000000"
 preserveAspectRatio="xMidYMid meet">
<metadata>
Created by potrace 1.14, written by Peter Selinger 2001-2017
</metadata>
<g transform="translate(0.000000,2384.000000) scale(0.100000,-0.100000)"
fill="#000000" stroke="none">
<path d="M8900 21055 l0 -217 -27 6 c-16 3 -129 24 -253 46 -124 22 -235 42
-247 45 l-23 5 0 -790 0 -790 -3740 0 c-3382 0 -3748 -2 -3818 -16 -273 -56
-488 -257 -574 -534 l-23 -75 -3 -6810 c-2 -6089 -1 -6819 13 -6899 50 -292
251 -511 550 -602 58 -18 217 -19 3822 -21 l3763 -3 2 -618 3 -618 235 42
c129 23 250 44 268 47 l32 6 0 -345 c0 -189 1 -344 3 -344 56 6 14130 2499
14135 2504 8 9 20 13667 11 13679 -4 5 -13794 2465 -14091 2513 l-38 7 0 -218z
m-690 -3235 l0 -920 -2240 0 -2240 0 0 920 0 920 2240 0 2240 0 0 -920z m3430
470 c518 -94 8683 -1613 8710 -1622 69 -21 171 -81 224 -132 119 -115 177
-252 182 -431 1 -60 17 -278 35 -484 37 -423 36 -431 -27 -561 -27 -55 -57
-95 -113 -150 -115 -114 -245 -170 -396 -170 -39 0 -438 49 -886 110 -448 60
-1136 152 -1529 205 -393 52 -727 98 -742 101 l-28 6 -2 -4219 -3 -4218 -27
-58 c-55 -117 -165 -202 -293 -227 -43 -8 -308 -10 -950 -8 l-890 3 -55 23
c-112 46 -187 122 -234 236 l-21 51 -3 4372 -2 4371 -28 6 c-15 3 -766 105
-1669 226 -1248 167 -1655 225 -1695 241 -207 81 -338 240 -377 455 -9 46 -4
207 23 745 33 666 35 688 60 760 73 210 263 364 481 389 70 9 112 5 255 -20z
m-3435 -2905 l0 -920 -2237 -3 -2238 -2 0 925 0 925 2238 -2 2237 -3 0 -920z
m-5135 -15 l0 -920 -1110 0 -1110 0 0 920 0 920 1110 0 1110 0 0 -920z m5135
-2495 l0 -920 -2237 -3 -2238 -2 0 925 0 925 2238 -2 2237 -3 0 -920z m-5135
-15 l0 -920 -1110 0 -1110 0 0 920 0 920 1110 0 1110 0 0 -920z m5120 -2450
l0 -920 -2240 0 -2240 0 0 920 0 920 2240 0 2240 0 0 -920z m-5130 -20 l0
-920 -1110 0 -1110 0 0 920 0 920 1110 0 1110 0 0 -920z m5130 -2300 l0 -920
-2240 0 -2240 0 0 920 0 920 2240 0 2240 0 0 -920z m-5130 -20 l0 -920 -1110
0 -1110 0 0 920 0 920 1110 0 1110 0 0 -920z m5120 -2330 l0 -920 -2240 0
-2240 0 0 920 0 920 2240 0 2240 0 0 -920z m-5120 -20 l0 -920 -1110 0 -1110
0 0 920 0 920 1110 0 1110 0 0 -920z"/>
<path d="M4100 10470 l0 -610 1950 0 1950 0 0 610 0 610 -1950 0 -1950 0 0
-610z"/>
<path d="M1100 10440 l0 -610 885 0 885 0 -2 608 -3 607 -882 3 -883 2 0 -610z"/>
</g>
</svg>
