<?xml version="1.0" standalone="no"?>
<!DOCTYPE svg PUBLIC "-//W3C//DTD SVG 20010904//EN"
 "http://www.w3.org/TR/2001/REC-SVG-20010904/DTD/svg10.dtd">
<svg version="1.0" xmlns="http://www.w3.org/2000/svg"
 width="700.000000pt" height="700.000000pt" viewBox="0 0 700.000000 700.000000"
 preserveAspectRatio="xMidYMid meet">
<g transform="translate(0.000000,700.000000) scale(0.100000,-0.100000)"
fill="#000000" stroke="none">
<path d="M0 3500 l0 -3500 3500 0 3500 0 -2 778 -3 777 -1072 3 -1073 2 0 620
0 620 1075 0 1075 0 0 675 0 675 -1075 0 -1075 0 0 655 0 655 1063 0 c813 0
1066 3 1075 12 9 9 12 194 12 770 l0 758 -3500 0 -3500 0 0 -3500z m3470 1835
l0 -375 -577 -2 -578 -3 -3 -1757 -2 -1758 -450 0 -450 0 -2 1758 -3 1757
-577 3 -578 2 0 375 0 375 1610 0 1610 0 0 -375z m1310 -530 l0 -655 -484 0
c-266 0 -491 3 -500 6 -14 6 -16 72 -16 648 0 354 3 646 7 649 3 4 228 7 500
7 l493 0 0 -655z m0 -2625 l0 -620 -497 2 -498 3 -3 605 c-1 333 0 611 3 618
3 9 113 12 500 12 l495 0 0 -620z"/>
</g>
</svg>
